<?xml version="1.0" standalone="no"?>
<!DOCTYPE svg PUBLIC "-//W3C//DTD SVG 20010904//EN"
 "http://www.w3.org/TR/2001/REC-SVG-20010904/DTD/svg10.dtd">
<svg version="1.0" xmlns="http://www.w3.org/2000/svg"
 width="737.000000pt" height="1280.000000pt" viewBox="0 0 737.000000 1280.000000"
 preserveAspectRatio="xMidYMid meet">
<metadata>
Created by potrace 1.15, written by Peter Selinger 2001-2017
</metadata>
<g transform="translate(0.000000,1280.000000) scale(0.100000,-0.100000)"
fill="#000000" stroke="none">
<path d="M3607 12785 c-37 -8 -84 -23 -105 -35 -22 -12 -128 -118 -236 -236
-109 -118 -207 -216 -219 -219 -12 -3 -146 -25 -297 -50 -356 -59 -330 -52
-330 -78 1 -35 35 -99 71 -134 65 -62 93 -68 294 -65 99 1 196 5 216 8 l35 5
18 -58 c10 -32 20 -63 23 -69 2 -6 -22 -30 -54 -54 -77 -58 -192 -168 -209
-202 -15 -29 -30 -273 -42 -714 -8 -251 -10 -273 -30 -310 -79 -143 -519
-1032 -538 -1087 -33 -95 -63 -241 -70 -339 -5 -70 -1 -109 26 -248 36 -186
48 -222 82 -243 31 -20 178 -29 257 -16 77 12 169 53 236 104 28 21 142 92
255 157 l205 118 6 -658 c4 -361 11 -747 18 -857 16 -277 40 -551 52 -600 13
-51 -12 -132 -64 -203 -109 -150 -538 -840 -631 -1014 -52 -98 -58 -115 -81
-249 -74 -427 -94 -485 -342 -1014 -118 -252 -226 -495 -240 -540 -14 -46 -28
-125 -32 -187 -9 -109 -18 -135 -61 -165 -28 -20 -56 -87 -82 -193 -11 -47
-47 -179 -79 -295 -99 -348 -149 -556 -164 -685 -10 -82 -21 -136 -35 -163
-25 -48 -118 -154 -261 -300 -152 -154 -156 -182 -62 -371 39 -77 41 -72 -45
-111 -76 -35 -139 -45 -386 -59 l-220 -13 -80 50 c-135 84 -265 142 -313 141
-51 -1 -80 -24 -88 -68 -3 -17 -2 -83 3 -147 12 -170 23 -189 246 -416 l181
-185 116 -23 c149 -30 268 -61 333 -86 28 -10 74 -19 101 -19 73 0 172 -18
225 -41 28 -12 72 -46 112 -88 72 -75 116 -97 240 -121 110 -22 179 14 233
120 24 47 63 216 85 365 10 65 18 86 42 114 41 47 74 121 94 209 16 72 16 101
-2 269 -9 84 2 121 95 325 43 95 129 288 191 428 274 620 321 705 590 1065
212 283 290 409 387 625 38 84 65 114 184 211 149 121 256 253 342 424 19 39
71 116 116 172 107 134 179 191 226 179 41 -10 121 -82 184 -166 116 -155 198
-357 302 -753 108 -408 129 -459 247 -588 229 -251 336 -387 387 -493 44 -92
103 -289 165 -551 71 -303 112 -569 125 -815 6 -112 5 -119 -29 -234 -49 -163
-48 -244 5 -297 l21 -21 -38 -42 c-171 -184 -329 -330 -419 -388 -37 -24 -50
-26 -182 -30 -139 -4 -144 -5 -210 -39 -80 -40 -123 -99 -131 -177 -4 -41 0
-52 23 -80 32 -38 114 -82 195 -105 127 -36 232 -49 485 -58 409 -16 490 -1
605 108 85 80 111 90 155 63 18 -11 40 -31 49 -45 39 -59 146 -85 291 -72 117
11 191 43 250 110 67 74 77 119 55 238 -28 143 -57 260 -78 315 -19 48 -19 49
-1 92 55 128 81 322 60 444 -7 42 -34 113 -75 199 -85 177 -111 265 -147 493
-81 525 -177 961 -256 1176 -20 52 -81 185 -136 295 -166 332 -348 739 -376
840 -15 53 -83 902 -97 1205 -6 128 -4 141 25 260 17 68 31 141 31 162 0 44
-1 44 115 23 44 -8 113 -14 152 -15 l73 0 41 -52 c51 -65 92 -147 108 -215 13
-55 24 -63 89 -63 38 0 38 -12 -5 127 -14 46 -38 103 -54 128 l-29 45 113 0
c163 0 245 26 306 96 18 20 35 34 38 31 9 -10 -17 -301 -33 -362 -8 -33 -26
-80 -40 -104 -13 -24 -24 -45 -24 -47 0 -5 102 -56 104 -52 9 11 50 126 70
195 41 138 59 272 53 396 l-5 110 40 51 c22 27 53 77 70 110 56 111 126 439
112 526 -3 24 -2 30 4 20 20 -31 53 -217 62 -354 21 -308 98 -512 231 -607
l28 -20 60 31 61 30 -48 59 c-92 115 -173 299 -188 428 -3 34 -3 123 1 197 7
133 8 136 30 136 45 0 48 18 41 203 -17 412 -65 720 -138 880 l-31 67 22 93
c65 276 85 450 84 742 0 218 -3 273 -42 600 -81 694 -122 948 -171 1073 -84
208 -237 398 -425 529 -50 34 -126 88 -170 118 -94 66 -280 178 -380 228 -254
126 -491 169 -628 113 -67 -28 -136 -78 -166 -122 -31 -45 -26 -92 24 -218 25
-63 45 -131 45 -150 0 -38 -44 -137 -86 -193 l-24 -32 -138 98 c-296 210 -472
321 -513 321 -39 1 -104 35 -127 68 -18 25 -20 35 -11 58 8 23 29 38 102 74
84 41 93 48 101 81 8 32 4 45 -34 113 l-42 77 55 57 c97 102 133 211 123 367
-13 218 -119 442 -286 605 -87 85 -176 141 -269 171 -123 38 -346 49 -474 24z
m-140 -1893 c46 -57 83 -107 83 -111 0 -5 -55 -61 -123 -124 -75 -70 -133
-134 -148 -161 -13 -26 -28 -45 -34 -43 -30 10 -82 218 -69 274 12 48 51 130
110 230 l57 96 21 -29 c11 -16 58 -75 103 -132z m3547 -3442 c29 -208 49 -400
44 -426 -2 -12 -15 3 -43 51 -51 88 -141 180 -232 239 -40 26 -73 48 -73 50 0
1 23 17 51 35 96 63 186 171 205 247 l7 29 8 -25 c5 -14 19 -104 33 -200z"/>
</g>
</svg>
